<?xml version="1.0" encoding="UTF-8" standalone="no"?>
<!-- Created with Inkscape (http://www.inkscape.org/) -->

<svg
   xmlns:dc="http://purl.org/dc/elements/1.1/"
   xmlns:cc="http://creativecommons.org/ns#"
   xmlns:rdf="http://www.w3.org/1999/02/22-rdf-syntax-ns#"
   xmlns:svg="http://www.w3.org/2000/svg"
   xmlns="http://www.w3.org/2000/svg"
   xmlns:sodipodi="http://sodipodi.sourceforge.net/DTD/sodipodi-0.dtd"
   xmlns:inkscape="http://www.inkscape.org/namespaces/inkscape"
   width="210mm"
   height="297mm"
   id="svg2"
   version="1.1"
   inkscape:version="0.48.2 r9819"
   sodipodi:docname="Zeichnung.svg">
  <defs
     id="defs4" />
  <sodipodi:namedview
     id="base"
     pagecolor="#ffffff"
     bordercolor="#666666"
     borderopacity="1.0"
     inkscape:pageopacity="0.0"
     inkscape:pageshadow="2"
     inkscape:zoom="1"
     inkscape:cx="189.19056"
     inkscape:cy="566.61735"
     inkscape:document-units="px"
     inkscape:current-layer="layer1"
     showgrid="false"
     inkscape:snap-bbox="true"
     inkscape:object-paths="true"
     inkscape:snap-object-midpoints="true"
     showguides="true"
     inkscape:guide-bbox="true"
     inkscape:snap-global="false"
     inkscape:snap-grids="true"
     inkscape:snap-to-guides="true"
     inkscape:window-width="1440"
     inkscape:window-height="852"
     inkscape:window-x="0"
     inkscape:window-y="0"
     inkscape:window-maximized="1"
     inkscape:bbox-paths="true"
     inkscape:bbox-nodes="true"
     inkscape:snap-bbox-edge-midpoints="true"
     inkscape:snap-bbox-midpoints="true"
     inkscape:snap-center="true"
     inkscape:snap-midpoints="true"
     inkscape:object-nodes="true"
     inkscape:snap-intersection-paths="true"
     inkscape:snap-smooth-nodes="true" />
  <metadata
     id="metadata7">
    <rdf:RDF>
      <cc:Work
         rdf:about="">
        <dc:format>image/svg+xml</dc:format>
        <dc:type
           rdf:resource="http://purl.org/dc/dcmitype/StillImage" />
        <dc:title />
      </cc:Work>
    </rdf:RDF>
  </metadata>
  <g
     inkscape:label="Ebene 1"
     inkscape:groupmode="layer"
     id="layer1">
    <path
       id="path4766"
       d="m 286.125,350.5625 -2.5,42.6875 c 11.65608,-6.63279 25.9716,-10.71875 36.375,-10.71875 20.66075,0 37.375,16.8705 37.375,37.53125 0,20.66073 -16.71425,37.375 -37.375,37.375 -10.44531,0 -24.81873,-4.59314 -36.5,-11.71875 l 0,0.125 2.75,106.125 196.125,0 2.78125,-46.5625 C 473.21046,513.11486 457.93188,518.125 447,518.125 c -20.66075,0 -37.375,-16.74551 -37.375,-37.40625 0,-20.66073 16.71425,-37.5 37.375,-37.5 10.93115,0 26.21074,4.44384 38.15625,11.6875 L 482.375,350.5625 l -196.25,0 z"
       style="fill:none;stroke:#ff7800;stroke-width:7.44798660000000012;stroke-miterlimit:4;stroke-opacity:1;stroke-dasharray:none"
       inkscape:connector-curvature="0"
       inkscape:export-filename="/Users/Ingmar/Dropbox/Dokumente/Studium/1340 Projekt/Design/Logo_wide.png"
       inkscape:export-xdpi="471.87"
       inkscape:export-ydpi="471.87" />
    <path
       style="fill:none;fill-opacity:1;fill-rule:nonzero;stroke:#ff7800;stroke-width:7.44798660000000012;stroke-miterlimit:4;stroke-opacity:1;stroke-dasharray:none"
       d="m 482.56542,350.56154 2.7694,104.35659 c -11.94543,-7.24367 -27.21104,-11.70711 -38.14241,-11.70711 -20.66073,0 -37.38705,16.85229 -37.38705,37.51303 0,20.66073 16.72632,37.38698 37.38705,37.38698 10.93188,0 26.19666,-5.0054 38.14241,-12.7141 l -2.7694,46.57649 166.03886,0 c 10.04237,0 18.12701,-8.08459 18.12701,-18.12705 l 0,-165.15768 c 0,-10.04235 -8.08464,-18.12715 -18.12701,-18.12715 l -166.03886,0 z"
       id="path4768"
       inkscape:connector-curvature="0"
       inkscape:export-filename="/Users/Ingmar/Dropbox/Dokumente/Studium/1340 Projekt/Design/Logo_wide.png"
       inkscape:export-xdpi="471.87"
       inkscape:export-ydpi="471.87" />
    <path
       inkscape:connector-curvature="0"
       id="path5656"
       d="m 120.12395,350.5617 c -10.04232,0 -18.12704,8.08467 -18.12704,18.12702 l 0,165.15775 c 0,10.04241 8.08472,18.127 18.12704,18.127 l 165.91295,0 -2.76946,-106.11876 0,-0.12635 c 11.68135,7.12561 26.06052,11.70702 36.50594,11.70702 20.66076,0 37.38696,-16.72632 37.38696,-37.38693 0,-20.6607 -16.7262,-37.51299 -37.38696,-37.51299 -10.40343,0 -24.72404,4.06722 -36.38003,10.69993 l 2.51764,-42.67412 -165.78704,0 z"
       style="fill:none;fill-opacity:1;fill-rule:nonzero;stroke:#ff7800;stroke-width:7.448;stroke-miterlimit:4;stroke-opacity:1;stroke-dasharray:none"
       inkscape:export-filename="/Users/Ingmar/Dropbox/Dokumente/Studium/1340 Projekt/Design/Logo_wide.png"
       inkscape:export-xdpi="471.87"
       inkscape:export-ydpi="471.87" />
    <path
       inkscape:export-ydpi="471.87"
       inkscape:export-xdpi="471.87"
       inkscape:export-filename="/Users/Ingmar/Dropbox/Dokumente/Studium/1340 Projekt/Design/Logo_wide.png"
       id="path3859"
       d="m 168.09375,379 c -5.82753,0 -10.53125,4.70372 -10.53125,10.53125 l 0,123.46875 c 0,5.82753 4.70372,10.53125 10.53125,10.53125 l 59.71875,0 c 5.82753,0 10.5,-4.70372 10.5,-10.53125 l 0,-123.46875 c 0,-5.82753 -4.67247,-10.53125 -10.5,-10.53125 l -59.71875,0 z M 184,382.5 l 27.90625,0 c 1.34365,0 2.40625,0.84208 2.40625,1.875 0,1.03292 -1.0626,1.875 -2.40625,1.875 L 184,386.25 c -1.34365,0 -2.40625,-0.84208 -2.40625,-1.875 0,-1.03292 1.0626,-1.875 2.40625,-1.875 z m -16.65625,6.65625 61.21875,0 c 1.6549,0 3,1.3451 3,3 l 0,111.96875 c 0,1.6549 -1.3451,3 -3,3 l -61.21875,0 c -1.6549,0 -3,-1.3451 -3,-3 l 0,-111.96875 c 0,-1.6549 1.3451,-3 3,-3 z m 9.5625,122.4375 10.46875,0 c 0.50408,0 0.90625,0.40217 0.90625,0.90625 l 0,1.90625 c 0,0.50408 -0.40217,0.90625 -0.90625,0.90625 l -10.46875,0 C 176.40217,515.3125 176,514.91033 176,514.40625 L 176,512.5 c 0,-0.50408 0.40217,-0.90625 0.90625,-0.90625 z m 15.8125,0 10.46875,0 c 0.50408,0 0.90625,0.40217 0.90625,0.90625 l 0,1.90625 c 0,0.50408 -0.40217,0.90625 -0.90625,0.90625 l -10.46875,0 c -0.50408,0 -0.90625,-0.40217 -0.90625,-0.90625 l 0,-1.90625 c 0,-0.50408 0.40217,-0.90625 0.90625,-0.90625 z m 15.8125,0 10.46875,0 c 0.50408,0 0.90625,0.40217 0.90625,0.90625 l 0,1.90625 c 0,0.50408 -0.40217,0.90625 -0.90625,0.90625 l -10.46875,0 c -0.50408,0 -0.90625,-0.40217 -0.90625,-0.90625 l 0,-1.90625 c 0,-0.50408 0.40217,-0.90625 0.90625,-0.90625 z"
       style="fill:#0086cc;fill-opacity:1;fill-rule:nonzero;stroke:none"
       inkscape:connector-curvature="0" />
    <path
       style="fill:#0086cc;fill-opacity:1;fill-rule:nonzero;stroke:none"
       d="m 614.99954,458.01914 c -6.15522,0 -11.13365,4.97844 -11.13365,11.13367 0,6.15521 5.3671,9.8734 11.13365,31.16087 5.02878,-21.15942 11.13364,-25.00566 11.13364,-31.16087 0,-6.15523 -4.97842,-11.13367 -11.13364,-11.13367 z m 0,6.41941 c 2.19118,0 3.97867,1.75405 3.97867,3.94526 0,2.19121 -1.78749,3.9787 -3.97867,3.9787 -2.19118,0 -3.9787,-1.78749 -3.9787,-3.9787 0,-2.19121 1.78752,-3.94526 3.9787,-3.94526 z"
       id="path3883"
       inkscape:connector-curvature="0"
       inkscape:export-filename="/Users/Ingmar/Dropbox/Dokumente/Studium/1340 Projekt/Design/Logo_wide.png"
       inkscape:export-xdpi="471.87"
       inkscape:export-ydpi="471.87" />
    <g
       style="fill:#0086cc;fill-opacity:1"
       transform="matrix(1.5333014,0,0,1.5333014,-196.78357,-903.91056)"
       id="g4796"
       inkscape:export-filename="/Users/Ingmar/Dropbox/Dokumente/Studium/1340 Projekt/Design/Logo_wide.png"
       inkscape:export-xdpi="471.87"
       inkscape:export-ydpi="471.87">
      <path
         inkscape:connector-curvature="0"
         id="path4798"
         style="font-size:20.99508858px;font-style:normal;font-variant:normal;font-weight:bold;font-stretch:normal;line-height:125%;letter-spacing:0px;word-spacing:0px;fill:#0086cc;fill-opacity:1;stroke:none;font-family:Gudea;-inkscape-font-specification:Gudea Bold"
         d="m 230.69204,991.68971 -6.7119,0 0,-20.08941 -5.78613,12.49801 -5.8324,0 -5.78611,-12.45173 0,20.04313 -6.66562,0 0,-32.40228 7.12851,0 8.28572,17.35836 8.65603,-17.35836 6.7119,0 0,32.40228" />
      <path
         inkscape:connector-curvature="0"
         id="path4800"
         style="font-size:20.99508858px;font-style:normal;font-variant:normal;font-weight:bold;font-stretch:normal;line-height:125%;letter-spacing:0px;word-spacing:0px;fill:#0086cc;fill-opacity:1;stroke:none;font-family:Gudea;-inkscape-font-specification:Gudea Bold"
         d="m 259.36225,991.68971 -6.66561,0 -2.31445,-7.91541 -9.76696,0 -2.26816,7.91541 -6.43417,0 9.72068,-32.40228 7.91541,0 9.81326,32.40228 m -10.22985,-13.23865 -3.56427,-13.3312 -3.61052,13.3312 7.17479,0" />
      <path
         inkscape:connector-curvature="0"
         id="path4802"
         style="font-size:20.99508858px;font-style:normal;font-variant:normal;font-weight:bold;font-stretch:normal;line-height:125%;letter-spacing:0px;word-spacing:0px;fill:#0086cc;fill-opacity:1;stroke:none;font-family:Gudea;-inkscape-font-specification:Gudea Bold"
         d="m 275.01368,991.96744 c -4.72147,0 -8.34742,-1.48126 -10.87788,-4.44374 -2.49962,-2.99335 -3.7494,-7.03591 -3.7494,-12.12772 0,-5.09176 1.32693,-9.11889 3.98083,-12.0814 2.68475,-2.96245 6.4033,-4.44371 11.15564,-4.44374 2.59217,3e-5 5.16891,0.4475 7.73026,1.34239 l -1.29609,5.18436 c -1.88244,-0.80233 -4.10432,-1.20349 -6.66562,-1.20353 -2.56133,4e-5 -4.56719,0.9721 -6.01756,2.9162 -1.4504,1.94417 -2.17558,4.62892 -2.17558,8.05429 0,3.42539 0.67891,6.20273 2.03672,8.33202 1.3578,2.09843 3.27106,3.14763 5.73983,3.14763 1.85153,0 4.49,-0.60174 7.91541,-1.80527 l 1.38866,4.72147 c -2.80821,1.60469 -5.86329,2.40704 -9.16522,2.40704" />
      <path
         inkscape:connector-curvature="0"
         id="path4804"
         style="font-size:20.99508858px;font-style:normal;font-variant:normal;font-weight:bold;font-stretch:normal;line-height:125%;letter-spacing:0px;word-spacing:0px;fill:#0086cc;fill-opacity:1;stroke:none;font-family:Gudea;-inkscape-font-specification:Gudea Bold"
         d="m 313.38867,991.68971 -6.7119,0 0,-14.16443 -10.73903,0 0,14.16443 -6.7119,0 0,-32.40228 6.7119,0 0,12.91462 10.73903,0 0,-12.91462 6.7119,0 0,32.40228" />
    </g>
    <g
       style="fill:#0086cc;fill-opacity:1"
       transform="matrix(1.5333014,0,0,1.5333014,-192.17091,-904.05249)"
       id="g4806"
       inkscape:export-filename="/Users/Ingmar/Dropbox/Dokumente/Studium/1340 Projekt/Design/Logo_wide.png"
       inkscape:export-xdpi="471.87"
       inkscape:export-ydpi="471.87">
      <path
         inkscape:connector-curvature="0"
         id="path4808"
         style="font-size:20.99508858px;font-style:normal;font-variant:normal;font-weight:bold;font-stretch:normal;line-height:125%;letter-spacing:0px;word-spacing:0px;fill:#0086cc;fill-opacity:1;stroke:none;font-family:Gudea;-inkscape-font-specification:Gudea Bold"
         d="m 356.72019,974.33135 c -2e-5,5.21523 -1.51213,9.41208 -4.53632,12.59058 -3.02424,3.17853 -7.0668,4.76778 -12.1277,4.76778 l -8.60975,0 0,-32.40228 10.04472,0 c 4.598,5e-5 8.28569,1.40414 11.06304,4.21231 2.77732,2.80821 4.16599,6.41876 4.16601,10.83161 m -6.98964,-0.37031 c -2e-5,-2.90077 -0.78692,-5.18434 -2.36073,-6.85078 -1.57384,-1.66637 -3.47169,-2.49957 -5.69353,-2.49959 l -3.70312,0 0,21.7558 2.49959,0 c 2.59217,0 4.78319,-1.0955 6.57305,-3.28651 1.78981,-2.22186 2.68472,-5.26151 2.68474,-9.11892" />
      <path
         inkscape:connector-curvature="0"
         id="path4810"
         style="font-size:20.99508858px;font-style:normal;font-variant:normal;font-weight:bold;font-stretch:normal;line-height:125%;letter-spacing:0px;word-spacing:0px;fill:#0086cc;fill-opacity:1;stroke:none;font-family:Gudea;-inkscape-font-specification:Gudea Bold"
         d="m 380.58357,991.68971 -19.30248,0 0,-32.40228 19.30248,0 0,5.32324 -12.59058,0 0,6.80448 11.43335,0 0,5.41579 -11.43335,0 0,9.53553 12.59058,0 0,5.32324" />
      <path
         inkscape:connector-curvature="0"
         id="path4812"
         style="font-size:20.99508858px;font-style:normal;font-variant:normal;font-weight:bold;font-stretch:normal;line-height:125%;letter-spacing:0px;word-spacing:0px;fill:#0086cc;fill-opacity:1;stroke:none;font-family:Gudea;-inkscape-font-specification:Gudea Bold"
         d="m 392.34169,991.68971 -6.7119,0 0,-32.40228 6.7119,0 0,32.40228" />
      <path
         inkscape:connector-curvature="0"
         id="path4814"
         style="font-size:20.99508858px;font-style:normal;font-variant:normal;font-weight:bold;font-stretch:normal;line-height:125%;letter-spacing:0px;word-spacing:0px;fill:#0086cc;fill-opacity:1;stroke:none;font-family:Gudea;-inkscape-font-specification:Gudea Bold"
         d="m 423.11516,991.73598 -7.03591,0 -10.97049,-19.95052 0,19.90425 -6.85076,0 0,-32.40228 6.85076,0 11.2945,20.9226 0,-20.9226 6.7119,0 0,32.44855" />
    </g>
    <g
       style="fill:#0086cc;fill-opacity:1"
       transform="matrix(1.5333014,0,0,1.5333014,-181.14722,-903.87507)"
       id="g4816"
       inkscape:export-filename="/Users/Ingmar/Dropbox/Dokumente/Studium/1340 Projekt/Design/Logo_wide.png"
       inkscape:export-xdpi="471.87"
       inkscape:export-ydpi="471.87">
      <path
         inkscape:connector-curvature="0"
         id="path4818"
         style="font-size:20.99508858px;font-style:normal;font-variant:normal;font-weight:bold;font-stretch:normal;line-height:125%;letter-spacing:0px;word-spacing:0px;fill:#0086cc;fill-opacity:1;stroke:none;font-family:Gudea;-inkscape-font-specification:Gudea Bold"
         d="m 459.34711,960.44466 -1.11093,5.41582 -2.86993,-0.78692 c -2.03672,-0.46287 -3.81113,-0.6943 -5.32321,-0.69435 -2.09846,5e-5 -3.14766,1.00297 -3.14766,3.00878 0,0.77151 0.35488,1.48129 1.06465,2.12931 0.7406,0.6172 1.6664,1.14182 2.77733,1.57382 1.11093,0.40119 2.299,0.91036 3.56424,1.52754 1.26522,0.61719 2.45332,1.28067 3.56427,1.99042 1.11091,0.70978 2.02125,1.68185 2.73105,2.9162 0.74059,1.23438 1.1109,2.65391 1.11093,4.25859 -3e-5,3.1785 -1.03381,5.67812 -3.10136,7.4988 -2.03673,1.78984 -4.92209,2.68477 -8.65603,2.68477 -1.9133,0 -3.82657,-0.24689 -5.73983,-0.74062 -1.88243,-0.52462 -3.44082,-1.12636 -4.67519,-1.80527 l 1.99042,-4.95293 c 2.83906,1.29611 5.64725,1.94415 8.4246,1.94415 1.5738,0 2.80817,-0.35488 3.7031,-1.06465 0.89491,-0.74062 1.34236,-1.68183 1.34238,-2.82363 -2e-5,-1.1418 -0.50918,-2.083 -1.52753,-2.82362 -1.01838,-0.77147 -2.25273,-1.45038 -3.7031,-2.03673 -1.45042,-0.61715 -2.9008,-1.29606 -4.35117,-2.0367 -1.45039,-0.77147 -2.68477,-1.83612 -3.70312,-3.19394 -1.01835,-1.38864 -1.52754,-3.02419 -1.52754,-4.90663 0,-2.80817 0.8795,-4.95288 2.63847,-6.43417 1.75897,-1.51206 4.11971,-2.26811 7.08221,-2.26816 2.99335,5e-5 6.14098,0.54008 9.44295,1.62012" />
      <path
         inkscape:connector-curvature="0"
         id="path4820"
         style="font-size:20.99508858px;font-style:normal;font-variant:normal;font-weight:bold;font-stretch:normal;line-height:125%;letter-spacing:0px;word-spacing:0px;fill:#0086cc;fill-opacity:1;stroke:none;font-family:Gudea;-inkscape-font-specification:Gudea Bold"
         d="m 475.81583,979.23798 -2.40702,0 0,12.45173 -6.7119,0 0,-32.40228 10.18357,0 c 3.79568,5e-5 6.54216,0.81781 8.23944,2.45332 1.69724,1.60472 2.54587,4.10432 2.54589,7.49882 -2e-5,3.36367 -1.04924,5.8787 -3.14766,7.54509 -2.06759,1.63556 -4.96836,2.45332 -8.70232,2.45332 m -0.50917,-14.67361 -1.89785,0 0,9.39667 0.74062,0 c 2.34531,2e-5 4.05798,-0.35488 5.13809,-1.06465 1.1109,-0.70976 1.66637,-1.89783 1.66639,-3.56425 -2e-5,-1.69724 -0.44748,-2.91618 -1.34238,-3.65682 -0.89493,-0.7406 -2.3299,-1.11091 -4.30487,-1.11095" />
      <path
         inkscape:connector-curvature="0"
         id="path4822"
         style="font-size:20.99508858px;font-style:normal;font-variant:normal;font-weight:bold;font-stretch:normal;line-height:125%;letter-spacing:0px;word-spacing:0px;fill:#0086cc;fill-opacity:1;stroke:none;font-family:Gudea;-inkscape-font-specification:Gudea Bold"
         d="m 497.75753,991.68971 -6.7119,0 0,-32.40228 6.7119,0 0,32.40228" />
      <path
         inkscape:connector-curvature="0"
         id="path4824"
         style="font-size:20.99508858px;font-style:normal;font-variant:normal;font-weight:bold;font-stretch:normal;line-height:125%;letter-spacing:0px;word-spacing:0px;fill:#0086cc;fill-opacity:1;stroke:none;font-family:Gudea;-inkscape-font-specification:Gudea Bold"
         d="m 522.97631,991.68971 -19.30249,0 0,-32.40228 19.30249,0 0,5.32324 -12.59058,0 0,6.80448 11.43337,0 0,5.41579 -11.43337,0 0,9.53553 12.59058,0 0,5.32324" />
      <path
         inkscape:connector-curvature="0"
         id="path4826"
         style="font-size:20.99508858px;font-style:normal;font-variant:normal;font-weight:bold;font-stretch:normal;line-height:125%;letter-spacing:0px;word-spacing:0px;fill:#0086cc;fill-opacity:1;stroke:none;font-family:Gudea;-inkscape-font-specification:Gudea Bold"
         d="m 547.92679,991.68971 -19.20993,0 0,-32.40228 6.7119,0 0,27.07904 12.49803,0 0,5.32324" />
    </g>
    <g
       id="g3872"
       inkscape:export-filename="/Users/Ingmar/Dropbox/Dokumente/Studium/1340 Projekt/Design/Logo_wide.png"
       inkscape:export-xdpi="471.87"
       inkscape:export-ydpi="471.87">
      <path
         style="font-size:medium;font-style:normal;font-variant:normal;font-weight:normal;font-stretch:normal;text-indent:0;text-align:start;text-decoration:none;line-height:normal;letter-spacing:normal;word-spacing:normal;text-transform:none;direction:ltr;block-progression:tb;writing-mode:lr-tb;text-anchor:start;baseline-shift:baseline;color:#000000;fill:#0086cc;fill-opacity:1;fill-rule:nonzero;stroke:none;stroke-width:6.35561562;marker:none;visibility:visible;display:inline;overflow:visible;enable-background:accumulate;font-family:Sans;-inkscape-font-specification:Sans"
         d="m 551.32813,382.5625 -43.23438,4.75 -2.8125,0.3125 0,2.875 0,119.3125 0,2.84375 2.8125,0.3125 c 14.38063,1.63474 28.77889,3.11941 43.15625,4.78125 l 3.3125,-0.375 0,-2.8125 0,-128.8125 0,-2.78125 c -1.176,-0.13079 -2.05755,-0.29551 -3.23437,-0.40625 z m -3.14063,6.75 0,121.6875 -36.5625,-4.03125 0,-113.625 z"
         id="path3874"
         inkscape:connector-curvature="0"
         sodipodi:nodetypes="cccccccccccccccccc"
         inkscape:export-filename="/Users/Ingmar/Dropbox/Dokumente/Studium/1340 Projekt/Design/Logo.png"
         inkscape:export-xdpi="235"
         inkscape:export-ydpi="235" />
      <path
         style="font-size:medium;font-style:normal;font-variant:normal;font-weight:normal;font-stretch:normal;text-indent:0;text-align:start;text-decoration:none;line-height:normal;letter-spacing:normal;word-spacing:normal;text-transform:none;direction:ltr;block-progression:tb;writing-mode:lr-tb;text-anchor:start;baseline-shift:baseline;color:#000000;fill:#0086cc;fill-opacity:1;fill-rule:nonzero;stroke:none;stroke-width:6.35561562;marker:none;visibility:visible;display:inline;overflow:visible;enable-background:accumulate;font-family:Sans;-inkscape-font-specification:Sans"
         d="m 640.4375,382.1875 -3.53125,0.40625 -42.9375,4.71875 -2.84375,0.3125 0,2.875 0,119.3125 0,2.84375 2.84375,0.3125 42.9375,4.75 3.53125,0.375 0,-3.53125 0,-128.8125 0,-3.5625 z m -6.375,7.125 0,121.6875 -36.5625,-4.03125 0,-113.625 36.5625,-4.03125 z"
         id="path3876"
         inkscape:connector-curvature="0"
         inkscape:export-filename="/Users/Ingmar/Dropbox/Dokumente/Studium/1340 Projekt/Design/Logo.png"
         inkscape:export-xdpi="235"
         inkscape:export-ydpi="235" />
      <path
         style="font-size:medium;font-style:normal;font-variant:normal;font-weight:normal;font-stretch:normal;text-indent:0;text-align:start;text-decoration:none;line-height:normal;letter-spacing:normal;word-spacing:normal;text-transform:none;direction:ltr;block-progression:tb;writing-mode:lr-tb;text-anchor:start;baseline-shift:baseline;color:#000000;fill:#0086cc;fill-opacity:1;fill-rule:nonzero;stroke:none;stroke-width:6.35561562;marker:none;visibility:visible;display:inline;overflow:visible;enable-background:accumulate;font-family:Sans;-inkscape-font-specification:Sans"
         d="m 551.40625,382.5625 -3.21875,0.34375 0,2.84375 0,128.8125 0,2.78125 3.40625,0.36395 c 14.355,-1.55982 28.70923,-3.15111 43.0625,-4.73895 l 2.84375,-0.3125 0,-2.84375 0,-119.3125 0,-2.875 -2.84375,-0.3125 -42.9375,-4.71875 z m 3.15625,6.75 36.5625,4.03125 0,113.625 L 554.5625,511 z"
         id="path3878"
         inkscape:connector-curvature="0"
         sodipodi:nodetypes="ccccccccccccccccccc"
         inkscape:export-filename="/Users/Ingmar/Dropbox/Dokumente/Studium/1340 Projekt/Design/Logo.png"
         inkscape:export-xdpi="235"
         inkscape:export-ydpi="235" />
    </g>
  </g>
</svg>
